<?xml version="1.0" encoding="utf-8"?>
<!-- Generator: Adobe Illustrator 23.1.0, SVG Export Plug-In . SVG Version: 6.00 Build 0)  -->
<svg version="1.1" id="Capa_1" xmlns="http://www.w3.org/2000/svg" xmlns:xlink="http://www.w3.org/1999/xlink" x="0px" y="0px"
	 viewBox="0 0 1200 1200" enable-background="new 0 0 1200 1200" xml:space="preserve">
<g>
	<path fill="#99C785" d="M959.157,278.414c-6.849-72.559-109.38-130.385-114.163-129.294c-1.641-0.35-5.56-0.765-8.089,2.562
		c-167.457,220.252-134.162,110.405-39.113,212.684l-49.503,72.472c-35.179-34.651-49.48-54.593-60.928-51.437
		c-100.524,11.288-163.281,144.055-236.864,191.347c-60.879,48.742-82.403,29.794-102.785,33.948
		c-5.137,1.048-8.197,6.251-6.564,11.234C353.339,659.138,431,761.69,449.456,787.497c0.107,6.059,23.287,18.484,54.314,9.398
		c0.094,0.034-8.572,75.573-9.88,87.829c-3.312,8.52,9.251,7.467,25.771,9.872c35.66,6.442,60.933,25.239,76.942,39.509
		c48.8,39.594,9.806,68.74,17.58,146.251c8.071,34.708,38.686,53.418,58.906,62.852c21.127,9.027,21.741,10.104,28.011-3.225
		c20.517-40.24,120.241-235.831,126.906-248.904c-0.295,0.579,4.685-6.352-3.866-8.665
		c-182.767-39.994-111.598-103.88-198.372-164.92c38.599-34.645,56.665-66.222,91.689-101.054
		c91.266-96.618,159.071-54.286,103.027-106.234c35.69-8.936,53.406-44.08,77.033-86.324c-3.755-12.127-5.451-29.423,3.474-49.341
		c17.358-38.739,43.868-31.581,43.93-31.564C954.828,324.386,960.366,308.118,959.157,278.414z M650.173,865.018
		c2.005-2.561,4.081-6.154,7.233-9.509c2.478-2.638,6.777-3.078,9.714-0.899c1.1,0.816,2.167,1.847,2.879,3.368
		c5.591,18.443,1.274,39.835-6.774,60.061C635.729,969.54,631.842,881.398,650.173,865.018z M620.016,634.378
		c-20.476,17.64-56.544,7.805-73.463-15.729s-17.944-49.679-2.322-67.369c15.51-17.563,47.772-21.175,74.447,6.798
		C644.396,585.05,640.492,616.738,620.016,634.378z M601.995,203.205c-5.773-43.244-17.493-131.075-19.284-144.497
		c0.19-6.931-9.293-9.703-28.774-8.393c-68.611,9.771-113.401,80.211-114.454,100.973c-11.648,38.015-71.348,66.679-103.276,73.615
		c-14.867,5.214-26.386,0.547-21.083,14.006c8.136,15.174,60.748,113.303,60.821,113.44c-20.31-0.472-46.203,0.994-74.103,7.7
		c-0.321-0.165-0.652-0.297-0.997-0.397c-0.07-0.04-69.226-107.651-77.561-120.557c-2.537-6.938-9.727-0.667-17.717,7.961
		c-45.925,48.464-24.761,88.817-8.363,138.245c23.569,67.18,60.077,154.905,62.774,159.451c1.613,1.993,2.611,7.217,8.496,6.03
		c48.344,14.448,109.05-25.886,159.273-16.612c0.742,0.137,1.483-0.239,1.748-0.945c3.297-8.776-0.81-42.783-1.248-83.324
		c6.865,16.611,12.07,7.858,19.556,6.315c117.564-52.963,8.375-143.931,68.134-184.626c17.065-18.784,48.869-34.351,86.754-40.122
		c0.763-0.116,1.43-0.639,1.664-1.374C606.435,223.542,603.472,220.331,601.995,203.205z M454.944,251.138
		c-12.71-40.531-5.021-48.593,0.835-49.08c2.533-0.212,13.365-1.063,19.421,25.649C488.907,288.161,465.279,275.52,454.944,251.138z
		 M998.004,740.954c-27.165,65.075-44.627,127.683-75.965,162.332c-14.676,17.505-76.837,31.825-77.589,18.343
		c0.009-0.087,24.296-142.826,24.279-142.773c-0.187-0.306-0.343-0.628-0.468-0.966c-50.051-27.666-80.242-65.295-87.13-74.427
		c-1.065-1.412-1.363-3.228-0.798-4.904c7.957-23.626,80.549-99.167,101.314-126.069c3.382-3.199,9.448-14.909,14.282-5.241
		c22.356,33.966,105.03,52.953,125.573,92.295C1030.851,666.762,1011.992,698.2,998.004,740.954z M454.579,895.76
		c-2.317,45.156-8.564,166.83-8.909,173.589c-1.824,17.08-134.48,17.439-174.38-33.253c-13.404-17.041-19.986-32.209-23.92-50.952
		c0.027-0.035,15.067-19.515,17.575-48.35c2.509-28.857-28.645-59.104-28.653-59.111c-2.404-38.994-7.227-54.491-1.834-84.315
		c15.804-56.653,104.354-61.493,108.421-61.651c8.398-0.327,5.707,5.808,5.973,12.441c1.125,27.999,3.655,128.871,3.653,128.811
		c43.164,8.483,83.922,2.622,93.967,0.917c2.038-0.346,4.156-0.22,6.019,0.672C459.163,877.753,453.496,885.337,454.579,895.76z"/>
	<path fill="#CFF0BF" d="M944.921,342.979c-5.514,10.348-12.376,21.414-20.194,35.924c-10.394,15.317-19.145,30.56-27.21,44.98
		c-3.755-12.127-5.451-29.423,3.474-49.341C918.349,335.803,944.859,342.962,944.921,342.979z M236.291,877.683
		c0.159,2.579,0.308,5.26,0.442,8.056c4.922,46.245,5.657,75.689,10.636,99.406c0.027-0.035,15.067-19.515,17.575-48.35
		C267.453,907.937,236.3,877.69,236.291,877.683z M663.224,918.04c8.049-20.227,12.365-41.619,6.774-60.061
		c-0.712-1.521-1.779-2.552-2.879-3.368c-2.937-2.18-7.236-1.74-9.714,0.899c-3.152,3.355-5.228,6.948-7.233,9.509
		C631.842,881.399,635.728,969.54,663.224,918.04z M546.553,618.649c16.919,23.534,52.986,33.37,73.463,15.729
		c20.477-17.64,24.38-49.329-1.338-76.299c-26.675-27.974-58.937-24.361-74.447-6.798
		C528.609,568.971,529.633,595.115,546.553,618.649z M455.779,202.057c-5.857,0.488-13.546,8.55-0.836,49.081
		c10.335,24.382,33.964,37.023,20.257-23.432C469.145,200.995,458.313,201.846,455.779,202.057z"/>
	<path d="M519.144,91.531c9.882-2.509,15.404-2.692,21.679,3.341c13.059-3.846,13.885,0.035,17.948,6.6
		c-0.216-0.252,0.744,0.676,0.239,0.265c14.791-3.254,15.122,26.829,13.052,39.54c-0.525,3.225-5.053,3.423-5.909,0.27
		c-2.663-9.813,0.764-30.689-3.47-33.246c-0.991,0.209-2.008,0.322-3.021,0.271c-2.478-0.124-4.549-1.352-6.119-3.229
		c-1.343-1.606-2.357-3.504-3.465-5.273c-0.052-0.083-0.106-0.168-0.184-0.227c-0.646-0.491-1.584,0.461-2.125,0.718
		c-0.606,0.288-1.224,0.55-1.857,0.773c-1.073,0.379-2.192,0.651-3.331,0.722c-1.292,0.08-2.588-0.12-3.78-0.633
		c-0.573-0.247-1.115-0.559-1.624-0.919c-0.262-0.185-0.515-0.383-0.76-0.59c-0.213-0.18-0.457-0.52-0.702-0.642
		c-19.303-9.539-44.329,15.807-53.269,27.006C460.594,127.192,509.085,90.195,519.144,91.531z M416.342,227.44
		c16.455-4.981,50.942-53.575,50.379-72.307c-0.088-2.94-4.074-3.763-5.32-1.099c-40.072,85.619-49.853,44.669-55.84,85.385
		c-7.051,4.601-14.438,10.023-12.432,21.851c-0.716,1.208-0.128,0.849-2.497,1.957c-10.541,1.914-6.967,12.43-10.437,21.122
		c-12.208,12.966,9.656,45.64,14.71,59.745c6.632,4.969,9.154-2.197,3.444-10.838c-5.488-13.493-10.296-23.784-14.443-38.719
		c4.653-5.475,4.919-15.261,7.872-23.137c7.791-1.605,10.281-9.365,9.926-18.73C411.804,246.864,414.194,240.985,416.342,227.44z
		 M379.766,260.311c0.767-1.201-1.252-3.502-2.236-3.869c-1.826-0.68-3.265,0.657-4.412,1.908c-1.539,1.676-3.079,2.718-5.5,2.667
		c-3.638-0.077-5.656-3.367-5.662-6.735c-0.004-2.135,0.809-4.931,2.898-5.91c2.705-1.268,9.475-0.44,5.821-6.023
		C339.735,238.414,362.079,288.014,379.766,260.311z M365.572,260.651c-0.065-0.04-0.176-0.088-0.278-0.115
		C365.422,260.597,365.307,260.544,365.572,260.651z M362.081,255.774c-0.002-0.093-0.017-0.186-0.044-0.241
		C362.049,255.636,362.036,255.549,362.081,255.774z M367.045,260.999C366.979,260.995,366.946,260.993,367.045,260.999
		C366.86,260.933,366.468,260.918,367.045,260.999z M370.854,260.338c-0.044-0.01-0.179,0.042-0.37,0.189
		C370.648,260.453,370.498,260.522,370.854,260.338z M570.398,162.998c5.776,11.095-9.381,18.173-6.113,30.403
		c-7.647,1.926-12.823,6.273-15.982,16.044c-12.314,2.066-7.577,11.409-14.837,21.207c-10.434,7.793-35.341,16.65-35.98,32.169
		c5.04,4.216,6.635-2.853,11.859-7.025c8.77-9.667,19.399-12.256,29.978-20.85c7.919-5.507,0.645-16.144,12.148-19.099
		c8.318-1.961,1.741-12.308,11.68-14.308c11.683-1.449,3.874-12.439,11.504-19.451c6.187-3.689,1.289-32.199-4.207-22.485
		C569.863,160.638,569.848,161.942,570.398,162.998z M577.528,211.71c-1.37-0.008-2.211,0.367-4.632-1.099
		c0.046,0.044,0.064,0.058,0.123,0.117c-0.039-0.041-0.029-0.023-0.208-0.179c0.016,0.01,0.01,0.019,0.085,0.062
		c-0.27-0.259-0.325-0.289-0.262-0.218c-13.016-13.286-6.492,19.767,12.176,3.573c1.266-2.555-1.956-5.877-5.995-2.515
		c0.098-0.053,0.132-0.07,0.196-0.104C578.836,211.407,578.558,211.527,577.528,211.71z M579.01,211.348
		C579.225,211.263,579.411,211.136,579.01,211.348L579.01,211.348z M452.676,316.376c-12.69-14.694,6.47-19.135-1.05-29.276
		c-4.745-2.6-10.918,5.983-17.3,0.016c-0.873-1.013-2.254-3.379-4-4.827c-2.542-2.109-6.196,0.857-4.755,3.83
		c2.967,6.121,9.754,12.919,18.848,9.021c-3.79,4.253-5.208,11.177-0.862,18.689c-3.083-2.021-6.816-3.631-13.198-2.046
		c10.237-38.486-27.318,18.437,5.834,5.787C440.424,318.476,461.868,336.443,452.676,316.376z M521.204,174.676
		c-9.21-10.401-38.045,3.355-5.652,3.696c3.125,2.929,10.349,16.381,17.497,11.061c4.471-10.139-10.33-10.884,8.582-25.09
		c1.612-1.211,1.753-3.739,0.112-4.911c-4.938-3.528-17.447-0.536-21.475-8.374c-0.466-0.907-0.123-2.337-1.033-3.183
		c-1.139-1.06-2.618,0.061-3.288,0.55c-4.306,3.14,7.875,17.489,15.676,16.052c-5.055,2.759-8.255,7.899-5.712,16.076
		C524.886,179.478,524.025,178.563,521.204,174.676z M792.02,263.303c3.638,10.034-10.155,15.124,5.768,29.8
		c0.064,1.828-0.907,3.583-2.125,5.443c-3.568,5.451-4.054,12.435-0.952,18.165c10.063,18.592,25.205,33.075,42.403,49.342
		c5.082,2.75,11.687,18.274,18.145,22.172c2.448,1.478,5.586-0.778,4.984-3.574c-3.308-15.337-34.657-39.162-45.026-49.261
		c-6.984-6.615-8.074-15.883-14.203-23.68c-1.954-2.486-2.086-5.961-0.468-8.678c3.019-5.068,6.597-11.574,0.447-17.118
		c-1.987-3.034-6.11-3.215-4.323-9.558c9.451-18.661-9.09-10.474,7.267-35.945c1.101-1.715-0.562-4.038-2.478-3.342
		C794.683,239.531,784.575,257.794,792.02,263.303z M774.03,294.352c-0.21,0.03-1.356,0.205-0.291,0.063
		c-3.168,0.423-7.444-1.061-8.062-4.623c-0.49-2.826,1.435-6.167,3.92-7.472c0.713-0.375,1.501-0.596,2.306-0.642
		c11.391-11.244-22.012-3.974-12.345,12.892C766.842,306.207,787.905,301.355,774.03,294.352z M814.723,225.367
		c2.986-6.333,6.116-7.097,13.067-7.675c2.773-0.231,5.469-1.174,7.756-2.759c4.831-3.347,8.231-2.96,17.051-3.063
		c1.622-0.019,3.315-0.111,4.792-0.783c25.995-11.83,57.419,37.146,71.954,57.797c0.815,1.158,1.22,2.677,2.318,3.228
		c1.223,0.613,2.433-0.246,3.222-0.688c13.376-7.504-45.338-68.208-64.851-69.643c-4.647-0.342-10.967,2.208-14.31,3.219
		c-1.467,0.444-2.97,0.666-4.502,0.671c-2.744,0.009-7.37,0.153-10.583,0.922c-4.208,1.008-7.101,2.431-8.83,3.486
		c-1.631,0.995-3.424,1.644-5.303,1.988c-3.247,0.595-8.117,1.601-11,2.737C809.726,217.255,806.598,231.272,814.723,225.367z
		 M846.91,185.869c-1.891,1.419-0.326,3.977,0.046,4.444c-0.172-0.223-0.344-0.446-0.516-0.669c4.22,8.079-6.041,5.446-5.881,3.066
		C833.627,168.697,868.527,183.332,846.91,185.869z M849.509,185.263c0.234,0.032,0.468,0.063,0.701,0.094
		c-0.227-0.026-0.452-0.062-0.678-0.094C849.525,185.262,849.517,185.263,849.509,185.263z M895.934,298.979
		c-0.768-1.251-1.137-1.831-1.233-3.401c-0.117-1.915,0.258-3.828,0.926-5.626c15.972-42.989-18.129-4.215-4.169,14.661
		c-8.16-1.657-15.533,0.679-24.529,6.547c3.391-8.605,6.181-16.987-1.787-27.678c2.433,1.325,20.673,3.851,17.347-2.191
		c-0.382-0.694-0.744-2.03-2.058-2.438c-0.786-0.244-1.757,0.119-2.79,0.037c-10.396-0.83-29.812-10.012-16.889,10.23
		c8.49,6.363-2.537,18.347-1.047,25.984c0.484,2.482,2.933,3.934,5.394,3.349c6.679-1.59,11.04-7.444,19.9-8.072
		C899.967,311.939,908.232,317.695,895.934,298.979z M452.491,874.559c6.672,3.194,1.005,10.778,2.088,21.201
		c-2.317,45.156-8.564,166.829-8.91,173.589c-1.824,17.08-134.48,17.438-174.38-33.253c-30.365-38.604-25.744-67.567-34.556-150.357
		c-2.163-45.064-8.026-60.574-2.276-92.371c15.804-56.653,104.354-61.492,108.421-61.651c8.398-0.327,5.706,5.808,5.973,12.442
		c1.125,27.999,3.655,128.871,3.654,128.81c43.163,8.483,83.922,2.622,93.967,0.917
		C448.509,873.541,450.627,873.667,452.491,874.559z M246.098,793.689c5.51,7.464,6.781,16.049,9.68,21.681
		c1.592-19.935,31.145-25.641,37.323-6.819c15.78-9.292,13.273,13.88,21.509,15.134c22.365-3.78,9.102,37.701,16.913,47.174
		c3.187,0.582,6.499,1.124,9.917,1.632c1.779-6.623-9.181-24.715-0.694-24.444l-1.739-61.303c-8.743,0.206-4.117-8.144-0.194-6.845
		l-0.186-6.56c-7.821-0.319-4.095-7.459-0.187-6.613l-0.149-5.241c-17.358,2.043-5.944-7.974-0.189-6.655l-0.329-11.601
		C319.161,745.168,259.97,754.404,246.098,793.689z M321.838,868.923c-1.113-7.934-9.253-20.006-0.924-20.565
		c-0.533-7.616-0.054-12.646-1.035-17.308c-14.294,2.357-15.377-10.729-20.281-17.659c-16.829,10.044-18.521-28.427-36.188,0.47
		c-0.308,0.746-0.629,1.359-0.958,1.861c-2.712,4.134-2.866,9.467-1.037,14.06c2.866,7.198,5.638,13.736,8.463,19.065
		c3.354,2.183,7.062,4.336,11.265,6.416c-16.128-41.798,7.482-10.237,10.379,4.587c3.5,1.39,7.28,2.719,11.289,3.995
		c-15.423-41.681,7.094-14.503,9.4,2.757C315.279,867.414,318.499,868.186,321.838,868.923z M255.485,964.864
		c10.247-22.721,3.796-49.913-6.812-69.23C251.035,923.239,253.659,950.211,255.485,964.864z M435.226,1057.328
		c-8.571,2.115-28.242,7.957-23.947-1.931c9.255-1.878,18.087-2.659,24.344-5.818l0.386-7.526
		c-7.868,2.133-22.172,7.615-23.038-0.584c6.958-4.364,18.515-2.75,23.426-6.986l0.46-8.969c-7,2.842-12.521,2.341-13.575-1.498
		c3.603-5.711,10.932-3.41,13.983-6.448l0.433-8.423c-11.862,0.586-4.78-8.041,0.35-6.826l0.66-12.864
		c-9.507,0.781-3.768-7.397,0.358-6.972l0.562-10.963c-13.232-0.069-4.579-8.434,0.344-6.694l0.576-11.221
		c-20.406-0.255-5.843-9.965,0.378-7.373l0.573-11.156c-33.045,4.733-9.092-9.7,0.359-7l0.621-12.089
		c-8.847,2.866-30.174,7.913-25.195-1.093c10.204-2.846,18.646-3.855,25.595-6.698l0.406-7.915
		c-9.389,2.526-35.269,9.359-32.544-1.081c11.439-2.919,24.967-3.068,32.97-7.228l0.333-6.497
		c-14.172,1.609-62.742,8.332-101.11-4.372c-58.883-8.247-86.122-27.407-98.696-43.886c-2.503,21.241,12.947,30.845,26.565,40.741
		c-0.173,12.497-24.724-9.923-24.456-10.861c4.75,35.175,39.538,60.524,10.811,108.674c8.506,85.826,109.917,100.458,177.679,89.11
		L435.226,1057.328z M303.69,789.59c4.214,0.347,3.2-12.865,12.434-7.252c2.213,1.231,3.548,6.183,2.148,8.497
		c-10.864,13.5,10.874,10.927,6.998-6.833C322.859,765.988,290.358,776.838,303.69,789.59z M333.449,904.679
		c18.879-0.791,33.974,6.955,52.108,14.052c0.651,9.823,1.107,19.262,18.187,21.946c2.985,6.169,2.945,16.15,13.553,17.912
		c5.525,3.276-3.746,19.054,5.819,21.31c4.21-7.188,5.207-27.137-9.249-29.973c-2.849-3.791-1.251-13.043-9.115-16.503
		c-18.41-1.867-6.192-8.124-16.388-21.489c-28.478-14.216-63.27-13.811-96.172-24.949
		C272.817,895.633,326.854,903.797,333.449,904.679z M413.808,1023.163c0.678-0.723,1.213-1.636,1.313-2.622
		c0.783-7.688,11.36-9.715,11.643-20.438c1.246-4.459-4.138-13.036-6.42-4.92c2.424,8.771-3.158,10.562-9.47,17.519
		c-0.564,0.622-0.906,1.43-1.064,2.255c-1.588,8.326-6.895,8.494-14.651,15.575c-0.285,0.26-0.54,0.58-0.746,0.906
		c-13.914,22.064-55.571,8.141-82.323-0.349c-5.47-1.736-8.316,6.355-2.948,8.385c10.138,3.835,22.799,6.83,27.947,7.875
		C383.699,1054.699,386.266,1052.54,413.808,1023.163z M331.698,986.414c-0.956,9.4,9.359-0.41,19.68-4.029
		c15.338-8.326-9.704-8.133-14.552-18.677c-1.968-3.147-1.728-10.382-4.702-15.123c-1.278-2.037-4.103-2.397-5.892-0.789
		c-7.918,7.115-12.406,20.938-25.48,24.687c-2.814,0.807-3.13,4.759-0.393,5.798c1.272,0.483,2.935,0.938,4.924,1.618
		c13.192,2.769,11.631,17.75,17.041,26.125c1.375,2.129,4.737,1.626,5.309-0.843c1.907-8.23-9.388-33.593-17.852-30.555
		c7.853-2.818,13.919-7.534,17.984-18.056c1.867,8.714,5.701,17.88,17.735,21.422C342.373,979.742,335.09,981.49,331.698,986.414z
		 M415.335,633.603c9.584-3.383,21.356-7.982,32.334-14.714c3.679-1.617,20.429-13.847,7.254-14.742
		c-12.185,8.952-27.617,17.26-44.866,22.672c-6.25,2.017-8.545,7.674-5.909,14.644c-1.703,4.257-3.024,9.958,1.596,16.075
		c-0.083-0.351-0.176,0.379-0.096,0.263c-2.772,5.638-5.407,7.964-0.957,18.045c-1.864,3.646-4.581,9.216,0.172,14.897
		c4.613,12.553,22.051,18.438,6.556-2.753c-6.263-5.878,5.169-11.396-1.579-20.11c1.676-5.937,5.78-11.21,0.627-19.584
		c0.383-3.826,3.615-4.264,0.965-11.977c0.009,0.018-0.251-0.567-0.386-0.781C411.801,634.868,412.418,634.603,415.335,633.603z
		 M477.499,596.778c51.169-32.407,80.771-89.881,125.521-130.963c2.03-3.311,6.834-5.396,9.757-8.06
		c2.746-2.503-0.45-6.863-3.682-5.031c-40.023,22.695-65.348,75.912-100.348,107.864
		C503.041,570.169,459.345,596.691,477.499,596.778z M639.212,428.959c5.635-3.256,10.867-2.223,14.811-0.46
		c1.171,0.524,2.457,0.647,3.735,0.544c7.876-0.634,13.632,2.341,16.952,4.81c2.075,1.543,4.78,1.922,7.193,0.994
		c7.276-2.799,14.603-0.227,19.351,3.575c5.889,1.072,13.175-2.452,16.391-0.798c7.981,1.159,64.874,54.361,47.368,61.267
		c-0.404,0.873-0.058,0.169-0.222,0.786c-0.001,0.665,0.465,1.129,0.531,1.278c-0.192-0.262,0.612,0.665,0.605,0.656
		c6.657,7.165-0.58,12.718-3.265,16.44c-0.005-0.038-0.023-0.009-0.033,0.008c0.121,0.258,0.276,0.543,0.096,0.133
		c5.411,6.946,3.287,13.065-1.157,16.827c0.059,0.065,0.181,0.263,0.114,0.196c5.563,9.807-6.981,13.683-9.75,15.388
		c-13.982,4.021-3.433-11.16,1.937-10.867c-2.952-6.627,0.967-9.964,3.481-12.993c-0.037-0.061,0.004-0.206,0.081-0.096
		c-6.134-6.984-2.312-14.894,2.418-18.716c-6.047-5.214-3.295-13.833,0.471-16.625c-14.398-12.403-30.67-43.392-48.633-45.742
		c0.055-0.015,0.158-0.042,0.351-0.1c-7.05,3.568-13.92,0.704-18.936-2.193c-1.986-1.147-4.373-1.236-6.521-0.43
		c-10.383,3.896-13.998-0.059-19.734-4.192c-1.33-0.958-2.957-1.487-4.594-1.391c-10.958,0.649-18.834-6.989-26.917,1.75
		C625.544,438.741,636.361,429.678,639.212,428.959z M757.491,526.675c-0.011,0.07-0.022,0.136-0.03,0.235
		C757.485,526.615,757.526,526.61,757.491,526.675z M759.943,507.939c-0.001-0.003-0.002-0.005-0.003-0.008
		c0.002,0.01,0.001,0.007,0.002,0.01C759.942,507.941,759.942,507.94,759.943,507.939z M762.682,517.974
		c-0.002,0.004-0.005,0.008-0.007,0.012c0.002,0.003,0.001,0.004,0.003,0.007C762.68,517.986,762.679,517.981,762.682,517.974z
		 M762.673,517.981c0.005-0.009,0.008-0.015,0.013-0.024C762.801,517.614,762.391,517.493,762.673,517.981z M762.63,518.058
		c0.019-0.035,0.023-0.041,0.039-0.07C762.445,517.629,762.52,517.825,762.63,518.058z M761.567,535.089
		c-0.018-0.042-0.009-0.038-0.012-0.053c-0.102,0.132-0.044,0.116-0.078,0.171C761.281,535.778,761.542,535.029,761.567,535.089z
		 M637.265,576.418c5.375-6.07,14.67-12.434,16.69-6.277c-3.624,6.172-12.725,9.357-14.582,13.38
		c6.834,26.891-6.846,55.405-32.94,62.559c-12.331,5.364-20.468,16.702-29.911,22.617c-15.945,1.068,13.211-18.154,14.465-20.509
		c-7.375-0.253-9.729-0.987-12.898-1.639c-27.951,29.848-48.831,30.755-7.124-2.265c-2.788-1.054-5.518-2.282-8.154-3.734
		c-11.298,15.609-22.463,9.706-12.734,3.078c-0.148,0.117-0.531,0.376,0.026-0.022c-0.009,0.007-0.017,0.015-0.026,0.022
		c0.031-0.024,0.062-0.049,0.094-0.071c-0.036,0.026-0.038,0.028-0.068,0.049c6.953-5.867,4.898-4.543,7.016-6.574
		c-30.601-20.202-40.068-68.315-11.81-92.203C575.666,518.524,625.403,540.429,637.265,576.418z M553.884,621.642
		c42.006,43.012,106.482-3.91,63.934-59.435C573.365,512.707,505.998,567.237,553.884,621.642z M502.31,662.497
		c-17.81,8.506-22.35-2.379-29.089-6.467c-3.606-2.188-7.704,1.652-5.775,5.403c4.267,8.295,18.548,16.915,27.753,11.144
		c-3.726,4.855-4.243,11.227-1.587,19.579c-5.315-3.45-11.338-9.602-21.125-6.549c11.502-19.217-11.407-4.62-13.438,4.426
		c-0.629,2.802,2.288,5.232,4.958,4.173c21.573-8.551,47.56,33.831,35.389-12.174c0.402-3.327,4.371-8.086,7.335-13.783
		C507.852,666.132,506.61,662.68,502.31,662.497z M683.368,528.43c-3.926-7.914-1.921-13.786,0.187-18.019
		c-9.234,4.033-15.293,0.571-20.887-2.502c-4.979,4.484-7.486-1.605-8.959-5.859c-4.758-13.74,18.467,3.081,21.089,2.542
		c24.497-5.942,17.336,0.867,12.275,13.923c2.229,6.723,2.725,8.415,3.752,11.463C699.436,546.718,669.636,533.579,683.368,528.43z
		 M686.998,518.767c-0.059,0.193-0.122,0.384-0.145,0.387C686.975,519.139,687.006,518.972,686.998,518.767z M666.093,524.584
		c-1.25,0.386-2.478,0.84-3.714,1.272c4.34-4.076-1.321-16.735-7.275,1.082c-1.141,1.76-6.846,7.09,0.209,9.77
		C658.211,536.475,680.235,529.032,666.093,524.584z M384.275,646.052c-0.026-0.037-0.05-0.059-0.078-0.088
		C384.226,646.007,384.2,645.975,384.275,646.052z M382.743,641.22C382.909,640.706,382.772,640.919,382.743,641.22L382.743,641.22z
		 M386.75,648.315c-0.851-0.556-1.093-0.693-2.475-2.263c0.089,0.13,0.01,0.023-0.148-0.15c0.021,0.007,0.046,0.038,0.07,0.062
		c-0.18-0.249-1.863-2.849-1.454-4.744c-0.016,0.051-0.019,0.068-0.042,0.134c0.315-0.932,0.173-2.023,1.569-3.748
		c-0.09,0.119-0.18,0.239-0.27,0.358c7.032-9.074-12.515-11.124-7.736,8.9C376.839,652.702,391.752,658.45,386.75,648.315z
		 M683.205,414.932c-3.458,2.615,4.791,5.955,6.141,4.349c10.69-1.356,4.058,8.299-1.992,7.722
		C655.57,416.898,696.059,399.343,683.205,414.932z M685.029,419.237C685.329,419.38,685.893,419.506,685.029,419.237
		L685.029,419.237z M780.599,527.492c4.016,6.978,23.294-1.755,10.494-6.059c-2.498,1.917-8.656,1.25-5.995-5.551
		C800.204,509.566,766.785,501.493,780.599,527.492z M588.707,620.258c-9.765,0.142-11.167-12.352-20.681-16.995
		c-3.495-1.705-5.986-4.946-6.994-8.701c-0.975-3.634-1.682-7.772-3.142-11.232c-1.268-3.004-5.649-2.623-6.317,0.569
		c-2.214,10.583,8.47,23.993,18.342,30.602C569.555,621.652,596.027,632.688,588.707,620.258z M582.887,561.263
		c13.885,9.422,33.967,19.084,32.429,41.988c1.523,3.255-3.218,7.486-5.108,11.577c-1.387,3.002,1.732,5.933,4.675,4.426
		c13.17-6.745,6.132-36.69-3.097-45.921c-2.924-4.974-10.452-3.092-14.45-10.145C594.825,556.658,576.594,552.243,582.887,561.263z
		 M197.204,385.302c-16.399-49.427-37.562-89.781,8.363-138.244c7.99-8.628,15.18-14.899,17.717-7.961
		c8.335,12.906,77.491,120.516,77.561,120.557c0.345,0.1,0.676,0.232,0.997,0.397c27.901-6.706,53.793-8.172,74.103-7.7
		c-0.074-0.137-52.685-98.266-60.821-113.44c-5.303-13.46,6.216-8.793,21.083-14.007c31.928-6.935,91.628-35.6,103.276-73.615
		c1.053-20.763,45.843-91.202,114.453-100.974c19.481-1.311,28.965,1.462,28.774,8.393c1.791,13.421,13.512,101.252,19.284,144.496
		c1.477,17.127,4.44,20.337,2.36,26.89c-0.234,0.736-0.901,1.258-1.664,1.375c-37.885,5.77-69.689,21.338-86.754,40.122
		c-59.759,40.695,49.43,131.663-68.134,184.626c-7.486,1.542-12.691,10.295-19.556-6.316c0.438,40.541,4.546,74.549,1.248,83.325
		c-0.265,0.706-1.007,1.082-1.748,0.945c-50.223-9.274-110.929,31.059-159.273,16.612c-5.885,1.187-6.883-4.037-8.496-6.03
		C257.281,540.207,220.773,452.482,197.204,385.302z M351.466,477.095c-0.13,10.952-5.627,23.792-7.342,32.847
		c3.177-1.067,6.382-2.04,9.634-2.856c3.215-12.813,6.598-26.979,9.074-37.104C360.21,471.607,356.254,474.071,351.466,477.095z
		 M345.272,481.025c-5.051,3.222-10.628,6.82-16.279,10.541c-1.106,9.267-4.513,19.661-5.788,26.115
		c4.47-1.64,8.904-3.382,13.359-5.045c0.17-0.634,0.34-1.268,0.509-1.903C339.727,500.82,342.262,490.841,345.272,481.025z
		 M322.34,495.982c-5.088,3.407-10.085,6.829-14.673,10.086c0.676,7.261-2.634,12.916-3.179,17.288
		c5.368-1.195,9.04-2.396,11.327-3.111C318.024,511.69,320.662,501.992,322.34,495.982z M296.982,524.648
		c1.419-5.627,2.49-9.793,3.176-13.106c-6.668,5.451-12.328,8.897-14.197,13.342c2.699,0.176,5.404,0.237,8.152,0.054
		C295.072,524.874,296.027,524.76,296.982,524.648z M280.639,545.212c3.374,0.502,7.251,0.817,11.487,0.849
		c0.873-4.455,1.87-8.878,2.912-13.293c-3.779,0.192-7.578,0.046-11.225-0.657c-0.223,0.81-0.467,1.616-0.677,2.43
		C282.227,538.079,281.561,541.68,280.639,545.212z M298.297,545.917c3.652-0.216,7.5-0.67,11.459-1.393
		c1.385-6.701,2.88-11.648,3.661-14.973c-5.693,1.576-8.277,1.963-11.183,2.455C300.989,536.662,299.695,541.303,298.297,545.917z
		 M316.904,542.99c3.542-0.844,7.701-1.903,12.255-3.074c2.303-7.834,3.521-12.91,4.774-17.448c-4.346,1.64-8.694,3.284-13.09,4.775
		c-1.864,7.573-2.737,10.878-3.519,13.982C317.174,541.813,317.042,542.404,316.904,542.99z M336.82,537.943
		c2.485-0.639,5.018-1.285,7.6-1.937c3.042-7.503,5.27-14.227,6.77-19.588c-3.239,0.961-6.439,2.063-9.605,3.21
		c-1.804,6.898-3.639,13.914-4.559,17.433C336.951,537.345,336.888,537.651,336.82,537.943z M352.504,534.002
		c3.919-0.956,7.882-1.891,11.862-2.786c1.508-6.059,3.086-12.097,4.71-18.122c-7.499,0.639-7.302,0.926-10.255,1.391
		C357.015,521.09,354.96,527.614,352.504,534.002z M388.79,352.925c28.53,3.888,34.026-1.737,34.856,18.478
		c5.498,5.97,6.128,7.849,10.302,5.92c9.892-3.626,13.137,3.831,17.321,6.638c0.087,0.023,0.176,0.047,0.261,0.07
		c-0.112-0.076,0.429-0.123,0.219,0.009c6.758-6.119,13.821-3.131,18.281-0.112c8.771-29.006-2.955-61.181,3.608-88.328
		c0.703-2.907,4.817-3.256,5.854-0.451c3.374,9.129,0.01,32.415,1.499,43.889c-0.915,17.006,7.103,66.044-20.269,48.97l0,0
		c-8.132,7.215-16.256,1.58-20.115-3.5c0.185,0.136-1.332-0.635-0.724-0.421c-5.563,0.542-11.977,3.032-15.139-0.538
		c0.392,5.017,0.766,10.558,1.123,16.456c5.65-5.33,4.406-5.107,7.582-5.94c8.804,3.828-5.311,12.712-7.115,14.031
		c0.008,0.136,0.015,0.27,0.023,0.405c3.288,1.886,3.787,5.49,4.769,6.713c30.682-32.297,18.328,0.325,3.33,6.786
		c2.355,4.63,2.947,5.633,4.334,8.044c12.707-6.585,21.28-13.879,27.08-25.386c3.687-7.791,8.048-3.383,8.367-0.857
		c-3.48,16.504-19.49,26.9-31.8,32.558c2.392,4.074,3.563,6.181,4.454,8.369c102.369-45.155-4.45-126.957,61.902-181.581
		c15.533-15.106,45.985-36.951,84.65-40.503l-3.999-29.967c-7.929-0.364-6.201-7.846-1.056-7.909l-0.675-5.057
		c-6.452,0.056-5.055-7.416-0.98-7.34l-1.747-13.089c-6.015,0.073-4.693-6.99-0.945-7.083l-1.251-9.374
		c-5.814-0.195-4.332-6.906-0.935-7.002l-1.106-8.29c-6.285,0.059-4.044-7.093-0.964-7.218l-0.737-5.522
		c-6.953-1.013-6.094-8.553-1.07-8.02l-0.97-7.267c-0.249-0.041-0.498-0.077-0.748-0.111c0.249,0.034,0.498,0.067,0.746,0.1l0-0.002
		c-2.818-0.409-4.269-0.489-4.929-0.605c0.304,0.041,0.608,0.082,0.912,0.123c-8.88-2.571,0.553-8.515,2.957-7.462l-0.659-4.935
		c-25.666,2.681-11.087-8.807-0.957-7.174l-0.421-3.154c-8.271-3.119-14.618,0.052-20.811-0.626
		c-7.448-9.692,17.946-7.464,19.798-6.957l-0.89-6.671c-14.234-6.655-75.868,10.131-111.164,64.682
		c-8.815,18.341-15.802,54.3-49.701,76.134c1.672,6.639-4.319,6.661-6.024,4.223c-1.379,0.92-2.766,1.819-4.161,2.692
		c-0.022,0.123-0.05,0.245-0.067,0.37c0.016-0.119,0.032-0.239,0.048-0.358c-0.002,0.001-0.005,0.003-0.008,0.005
		c0.707,10.567-6.904,6.468-7.017,4.164c-1.445,0.814-2.893,1.612-4.342,2.379c1.21,7.409-6.611,8.059-7,3.531
		c-22.469,10.797-44.088,16.238-55.18,18.549L388.79,352.925z M450.554,383.532c0.002,0.001,0.008,0.005,0.01,0.006
		C450.473,383.47,450.224,383.302,450.554,383.532z M460.778,387.993c-0.017,0.005-0.024,0.007-0.04,0.011
		C460.781,387.997,460.753,387.998,460.778,387.993z M323.951,364.111c-4.582,7.29-7.436,10.493-9.908,13.286l0.473,0.725
		c5.2-0.969,6.331-1.136,9.123-1.593c2.571-3.022,4.338-1.4,5.367-0.893c16.637-2.32,3.462,9.29-2.151,7.3
		c-4.099,5.883-3.664,5.553-4.611,7.031l4.727,7.245c7.575-16.785,8.164,2.533,4.533,6.947l4.077,6.249
		c0.54-2.216,1.072-4.275,1.852-5.731c1.329-2.482,5.096-1.895,5.62,0.871c0.926,4.88-2.885,10.544-2.434,12.58l6.063,9.291
		c1.009-3.969,1.501-6.588,2.274-8.206c1.024-2.143,4.183-1.898,4.979,0.34c1.939,5.455-2.702,11.66-2.133,15.712l4.891,7.497
		c6.132-25.655,8.937,0.069,4.99,7.646l4.585,7.025c19.96-46.213-2.678,35.436-5.148,48.117c8.698-1.204,5.641-0.581,8.637-0.947
		c1.609-0.184,1.295-0.187,1.704-0.247c0.958-4.534,3.28-4.284,4.626-4.171c0.782-8.641,8.523-9.079,12.753-10.774
		c18.396-26.115,12.58,7.99-2.412,9.573c-0.948,0.1-1.695,0.826-1.89,1.758c-0.7,3.34-2.859,10.443-8.314,11.033
		c-1.38,5.947-2.812,11.882-4.303,17.803c4.352-0.906,8.665-1.733,12.89-2.446c0.673-15.345,10.081-8.451,7.319-1.139
		c3.162-0.436,6.218-0.765,9.189-1.017c0.73-9.134,8.678-4.592,7.276-0.438c5.091-0.129,9.723,0.134,13.707,0.902
		c-0.639-26.114-3.541-135.188-7.916-161.124C404.504,362.556,368.009,357.155,323.951,364.111z M307.431,367.264l3.095,4.743
		c2.113-2.754,3.6-4.965,4.54-6.344C312.541,366.15,309.992,366.689,307.431,367.264z M189.164,332.525
		c1.81-15.086,8.161-30.877,19.833-21.285c3.907-7.18,10.434-2.971,13.375-0.358c24.398,1.911,32.589,19.366,44.785,37.752
		c2.949,8.012,17.734,24.392,21.91,34.024c1.31,3.022-2.668,5.541-4.891,3.112c-23.726-25.919-29.265-63.301-69-72.366
		c-3.242,7.315-11.118,2.472-13.972,0.877c-13.553,27.961-3.568,47.614,6.529,75.619c5.003,4.162,8.794,8.147,11.398,10.768
		c38.952-15.723,7.312,8.617,19.083,37.595c1.629,4.009-3.79,6.926-6.175,3.315c-5.647-8.553-5.361-33.979-0.094-37.851
		c-7.76,3.059-14.563,6.119-18.839,0.993c6.562,17.877,13.644,36.426,20.457,53.866c4.748-0.413,3.509,4.838,2.265,5.782
		c0.88,2.24,1.754,4.462,2.62,6.653c7.24-3.903,5.359,6.147,2.674,6.748c1.126,2.835,2.234,5.613,3.322,8.332
		c3.808-3.508,8.785-7.027,11.093-4.041c0.672,6.05-7.264,6.537-8.57,10.327c0.924,2.297,1.83,4.541,2.714,6.721
		c5.285-7.604,16.589-8.99,11.699-1.955c-3.849,2.932-8.823,8.318-8.969,8.674c0.63,1.544,1.245,3.049,1.845,4.514
		c7.288-8.802,23.162-15.661,24.564-25.973c-0.677-8.407,0.307-12.662,3.673-16.884c1.343-1.684,2.058-3.788,1.876-5.934
		c-0.746-8.805,2.11-13.927,6.035-18.122c2.007-2.145,2.699-5.172,1.72-7.942c-1.458-4.123-0.32-7.272,4.885-14.213
		c1.187-1.583-2.309-8.264-4.295-11.045c-2.01-2.814,1.002-6.796,4.135-5.33c6.095,2.852,7.203,16.508,3.096,22.857
		c-1.393,2.153-1.986,4.715-1.284,7.182c0.654,2.299,1.095,5.197,0.447,7.934c-0.93,3.925-3.824,7.573-5.846,9.74
		c-1.297,1.391-2.111,3.134-2.274,5.029c-0.344,4.003-1.27,11.039-3.664,14.793c-0.817,1.281-1.154,2.829-1.092,4.347
		c1.001,24.592-17.897,24.257-28.473,42.066c0.541,1.305,1.056,2.544,1.559,3.749c10.252-13.71,18.443-4.861,11.736,0.18
		c17.959-20.024,62.385-47.469,84.622-61.357c-1.157-3.269-88.427-138.665-88.427-138.665c-7.752,6.228-6.816-5.524-4.077-6.338
		l-2.887-4.488c-11.492,7.96-9.423-4.342-3.589-5.579l-2.346-3.646c-10.324,5.83-5.97-4.928-3.405-5.293l-16.742-26.023
		c-5.294,3.796-6.467-4.365-3.511-5.458L218.11,246.37C205.839,256.593,175.096,293.723,189.164,332.525z M215.678,298.04
		c3.607,3.442,16.601-6.023,4.412-6.754c-3.369,0.484-8.281-2.723-5.935-7.835c-0.664,1.278,1.256-2.232,0.909-1.728
		C220.738,264.973,192.669,287.686,215.678,298.04z M398.123,510.726c0.59,4.951,16.636,5.926,7.703-2.398
		c-2.906-1.772-4.651-7.372,0.413-9.821c-1.326,0.562,2.39-0.921,1.801-0.754C423.079,488.45,386.973,488.091,398.123,510.726z
		 M396.592,394.185c3.607,3.442,16.601-6.023,4.412-6.754c-3.369,0.484-8.281-2.723-5.935-7.835
		c-0.664,1.278,1.256-2.232,0.909-1.728C401.651,361.118,373.582,383.831,396.592,394.185z M314.84,439.073
		c13.744-3.708,10.749,6.928,3.082,6.509c0.026-0.005-1.092,0.623-1.15,0.693c0.015-0.018,0.047-0.042,0.045-0.053
		c-0.175,0.167-0.396,0.316-0.248,0.221c-0.036,0.03-0.094,0.078-0.09,0.074c-4.052,3.483-0.003,9.434,3.773,8.681
		c0.234,0.031,0.241-0.007,0.485-0.013c-0.081,0-0.101,0.003-0.163,0.003c15.039-8.215,8.905,8.306-0.717,7.331
		C306.383,462.217,303.279,443.388,314.84,439.073z M323.178,454.079c0.005-0.003,0.01-0.006,0.016-0.009
		C323.525,453.847,323.349,453.958,323.178,454.079z M315.211,448.169c-0.016,0.029-0.03,0.059-0.047,0.088
		C315.037,448.478,315.075,448.664,315.211,448.169z M316.569,446.443c0.08-0.051,0.158-0.115,0.203-0.168
		C316.672,446.346,316.747,446.29,316.569,446.443z M320.575,455.187c-0.15,0.002-0.27,0.005-0.322,0.01
		C320.359,455.19,320.252,455.199,320.575,455.187z M355.275,382.598c5.817,0.879,1.341,9.286,14.431,10.953
		c1.817,0.231,3.28,1.699,3.544,3.512c1.627,11.187,12.63,6.485,15.41,20.941c0.226,1.173,0.962,2.224,2.018,2.783
		c11.791,6.243,9.948,19.773,10.579,32.247c0.268,5.294,8.276,5.084,8.193-0.216c-0.157-9.987-2.818-22.299-4.856-28.079
		c-0.106-0.299-0.239-0.581-0.405-0.852c-4.064-6.649-10.162-5.928-11.467-16.409c-0.117-0.94-0.517-1.832-1.223-2.465
		c-9.05-8.117-7.666,0.727-13.474-14.887c-0.42-1.128-1.34-2.023-2.474-2.428c-8.765-3.135-11.793-7.95-14.567-11.054
		C356.372,371.482,341.258,379.721,355.275,382.598z M392.753,386.368c0.003-0.037-0.004-0.093-0.014-0.151
		C392.745,386.25,392.727,386.25,392.753,386.368z M998.004,740.954c-27.165,65.075-44.627,127.683-75.965,162.332
		c-14.676,17.505-76.837,31.825-77.589,18.343c0.009-0.087,24.296-142.826,24.279-142.773c-0.187-0.306-0.343-0.628-0.468-0.966
		c-50.051-27.666-80.242-65.295-87.13-74.427c-1.065-1.412-1.363-3.228-0.798-4.904c7.957-23.626,80.549-99.167,101.314-126.069
		c3.382-3.199,9.448-14.909,14.282-5.241c22.356,33.966,105.03,52.953,125.573,92.295
		C1030.851,666.762,1011.992,698.2,998.004,740.954z M866.675,767.457c-9.376-25.755-10.313-61.837,4.541-12.234l3.011-18.424
		c-12.899-21.884-10.812-47.091,2.076-12.706l2.579-15.788c-8.158-12.757-5.293-28.784,2.157-13.201l2.166-13.254
		c-3.875-6.358-1.882-10.629,1.698-10.391c2.263-26.167,9.384-14.469,41.006-10.797c-2.94-12.284,7.801-3.054,7.857,1.298
		c3.106,0.504,6.255,1.002,9.404,1.483c-8.629-23.949,7.705-5.938,8.035,1.192c4.057,0.581,8.032,1.116,11.805,1.576
		c-11.767-27.408,6.102-8.635,9.266,1.01c3.872,0.363,7.329,0.593,10.209,0.653c-2.046-6.762-1.775-5.824-3.244-9.651
		c0.034,0.114-0.259-0.642-0.484-1.301c-20.705-12.223-47.46-17.856-65.233-32.924c-6.877-2.319-10.837,6.011-16.312,2.526
		c-8.552-7.41-12.839,2.287-19.046-1.012c-3.664-11.403,16.788-10.805,21.362-6.58c5.781-0.879,8.353-6.061,13.671-4.067
		c26.512,19.203,58.989,23.425,81.647,44.933c14.923-32.057-69.837-41.983-103.993-85.268c-5.262,6.052-15.65,18.035-27.92,32.36
		c5.948,7.062-3.171,9.242-4.793,5.602c-1.252,1.465-2.516,2.947-3.793,4.446c6.772,7.65-2.732,9.148-4.892,5.749
		c-23.945,28.184-50.384,59.986-60.074,74.139c-0.821,1.199-0.763,2.774,0.138,3.913c7.571,9.572,28.84,34.438,61.424,56.728
		c-11.516-31.75,8.854-5.087,9.712,6.342C862.628,765.041,864.63,766.259,866.675,767.457z M864.623,852.423
		c0.513,0.218,0.301,0.135,0.549,0.23c-0.183-0.077-0.366-0.154-0.549-0.231L864.623,852.423z M914.487,898.795
		c-8.344-2.488,1.298-7.528,4.115-8.694c8.63-4.767,11.112-9.692,14.338-15.979c-10.988,8.523-25.763,19.181-29.081,2.425
		c-8.106,2.715-9.106-4.287-10.316-9.175c-17.21-17.834-10.145-39.349-6.811-60.706c4.12-10.092,3.005-47.431,11.991-41.125
		c1.123,38.235-21.558,70.861,2.057,105.218c7.18-2.653,9.789,4.637,10.603,8.198c0.037,0.026,0.44,0.823,0.149,0.391
		c0.158,0.235,0.183,0.239,0.191,0.239c12.042-5.348,21.447-13.073,28.932-21.098c-5.254,2.622-16.744,5.648-13.912-1.551
		c9.176-3.112,15.042-7.289,19.686-11.084c1.254-2.81,2.529-5.701,3.821-8.667c-6.162,2.323-17.084,4.948-14.543-2.031
		c7.367-3.405,14.637-4.477,19.103-8.575c1.336-3.145,2.684-6.349,4.04-9.599c-9.388,4.506-22.224,1.617-13.765-3.561
		c4.169-0.459,10.346-2.486,11.536-3.104c3.206-1.405,5.118-2.878,6.366-3.334c0.978-2.382,1.957-4.781,2.937-7.193
		c-36.517,5.026-8.886-8.325,3.465-8.577c1.242-3.092,2.481-6.193,3.714-9.297c-30.455,0.82-16.092-7.534,3.141-7.937
		c1.546-3.924,3.076-7.835,4.589-11.72c-7.329,0.988-21.213,2.036-16.471-5.606c7.375-0.906,15.662-0.653,19.7-2.724
		c1.179-3.051,2.341-6.073,3.485-9.06c-29.924-0.213-9.76-8.962,2.679-7.014c1.533-4.026,3.024-7.966,4.467-11.796
		c-28.639,0.639-7.735-8.119,2.848-7.589c0.875-2.34,1.726-4.622,2.554-6.852c-29.571,0.449-7.706-8.296,2.832-7.651
		c0.621-1.686,1.226-3.33,1.81-4.926c-10.343,1.31-22.673-2.418-30.92,0.146c-7.802,4.212-12.889,12.908-20.095,12.811
		c-1.221-0.016-2.353,0.561-3.096,1.53c-6.32,8.242-14.284,11.316-23.126,10.72c0.014-0.009-0.316,0.266-0.185,0.072
		c-0.545,14.804-9.096,9.458-16.351,14.105c-4.813,27.935-14.684,6.156-3.804-5.452c4.402-3.758,9.126-2.694,11.338-3.482
		c3.852-14.829,7.929-10.613,19.444-12.977c6.948-9.582,12.601-10.426,21.265-13.932c11.279-19.053,34.074-6.372,48.7-12.237
		c0.854-2.358,1.64-4.544,2.368-6.582c-10.205,2.069-18.595-0.22-15.598-5.125c-22.971,2.094-75.636-7.905-97.809-11.903
		c-1.357,3.225-16.822,114.394-19.973,113.533l-12.26,72.094c1.485,0.741,2.407,0.982,2.644,1.133
		c-0.299-0.125-0.597-0.252-0.896-0.378c8.381,3.82-0.775,8.633-3.099,7.185l-1.12,6.589c8.756-0.026,2.182,8.579-1.281,7.532
		l-7.461,43.872C864.546,918.249,893.591,916.306,914.487,898.795z M903.771,876.391c0.042,0.087,0.065,0.125,0.071,0.125
		C903.771,876.392,903.8,876.437,903.771,876.391z M883.815,877.002c-1.709-0.415-6.396,2.11-2.531,6.005
		c-0.855-0.947,3.597,3.347,3.022,3.152c0.273,1.077,1.118,2.247,0.101,4.624c0.53,2.781-13.97,3.71-6.439,9.699
		C889.875,903.498,899.193,882.856,883.815,877.002z M909.577,709.631c18.854,10.273,27.934-26.341,3.042-21.811
		c-1.156,0.866-2.945,4.018,0.771,5.902c3.353-0.326,10.398,3.344,6.297,8.556c0.044-0.027-0.112,0.112-0.246,0.351
		c0.005-0.032,0.032-0.069,0.052-0.106c-0.176,0.153-0.6,0.766-1.454,1.163c0.058-0.001-0.208,0.107-0.47,0.247
		c0.061-0.04,0.086-0.051,0.135-0.08c-1.045,0.34-2.415,0.57-4.267-0.212c0.043,0.026,0.057,0.032,0.111,0.065
		c-0.187-0.106-0.176-0.067-0.389-0.223C909.392,699.123,900.942,702.729,909.577,709.631z M913.438,703.642
		c-0.149-0.09-0.24-0.142-0.278-0.158C913.251,703.534,913.156,703.485,913.438,703.642z M919.535,702.48
		c0.064-0.088,0.131-0.172,0.153-0.202c-0.025,0.008-0.126,0.119-0.194,0.245C919.507,702.509,919.494,702.524,919.535,702.48z
		 M918.04,703.687c-0.023-0.005-0.14,0.049-0.336,0.167C917.857,703.791,917.72,703.85,918.04,703.687z M861.354,628.649
		c-13.245,11.053-29.199,26.863-24.983,47.117c-4.57,5.295-5.494,11.398,0.049,19.229c-4.772,5.255-6.943,13.248,1.25,20.168
		c-0.228-0.502,0.13,0.516,0.133,0.536c-11.65,12.187,20.354,26.682,3.998,7.521c3.427-4.409,3.415-12.432-3.035-17.639
		c0.003,0.005-0.503-1.041-0.278-0.484c-0.059-0.146-0.095-0.211-0.122-0.246c0.006-0.051,0.011-0.123,0.012-0.248
		c-0.001,0.481,0.1-0.525-0.009-0.206c2.929-3.527,7.354-9.595,2.504-16.075c-5.277-5.109,5.697-10.184,2.871-18.229
		C833.002,660.466,877.319,628.572,861.354,628.649z M823.577,686.686c-17.163-9.238,3.274,9.947-8.164,12.534
		C787.231,697.556,836.533,721.196,823.577,686.686z M886.709,600.938c-0.217-0.029-0.434-0.058-0.65-0.087
		c0.242,0.032,0.488,0.065,0.733,0.096c0.581,0.047,0.541,0.124,0.68,0.15c-0.005-0.002-0.01-0.004-0.016-0.006
		c4.056,1.582,5.577-0.242,6.965-1.257c10.041-4.144,2.482,9.491-1.731,8.54C884.775,611.154,879.072,600.806,886.709,600.938z
		 M891.698,601.527c0.675-0.284,0.436-0.18,0.675-0.285C892.148,601.338,891.923,601.433,891.698,601.527z M828.007,891.081
		c-6.665,13.073-106.388,208.663-126.906,248.904c-6.271,13.329-6.885,12.252-28.012,3.225
		c-20.22-9.435-50.835-28.145-58.906-62.852c-7.774-77.511,31.22-106.656-17.58-146.25c-16.008-14.27-41.282-33.068-76.941-39.509
		c-16.52-2.406-29.084-1.352-25.771-9.872c1.308-12.256,9.974-87.795,9.88-87.83c-31.027,9.086-54.207-3.339-54.314-9.398
		C431,761.69,353.339,659.138,341.146,621.93c-1.633-4.982,1.427-10.186,6.564-11.233c20.382-4.155,41.906,14.793,102.785-33.948
		c73.583-47.292,136.341-180.059,236.864-191.346c11.449-3.156,25.749,16.785,60.929,51.436l49.503-72.472
		c-95.049-102.279-128.344,7.568,39.113-212.684c2.529-3.327,6.448-2.912,8.089-2.562c4.783-1.091,107.313,56.734,114.163,129.293
		c1.883,46.237-12.565,59.909-34.429,100.49c-40.842,60.185-56.37,119.319-104.242,131.304
		c56.044,51.948-11.761,9.616-103.027,106.234c-35.024,34.832-53.09,66.409-91.689,101.053
		c86.773,61.04,15.604,124.926,198.372,164.92C832.692,884.729,827.712,891.659,828.007,891.081z M590.847,694.917
		c2.771,1.385,5.606,2.895,8.513,4.559c2.716-2.386,5.388-4.823,8.021-7.301c-5.613-4.84,3.235-7.304,5.17-4.948
		c29.391-30.15,57.576-65.482,84.09-96.253c-0.048,0.105,0.36-1.131,0.303-0.956c0.016-0.049-0.01-0.207-0.06-0.262
		C690.347,567.486,634.357,662.985,590.847,694.917z M824.943,497.255c-4.001-40.69-8.315-81.172-12.494-119.98
		c-1.913-1.981-3.904-3.987-5.981-6.022l-6.125,8.967c7.148,40.442,9.965,79.875,10.794,119.923
		C815.854,499.706,820.482,498.771,824.943,497.255z M843.676,485.862c-5.599-33.879,1.722-74.69-23.149-99.895
		c5.014,35.846,9.221,74.289,11.224,108.449C835.981,492.262,839.975,489.421,843.676,485.862z M908.501,384.646
		c-1.307-5.937-2.409-7.711-3.622-10.103c-2.74,5.326-4.557,10.472-5.525,13.559c2.155,4.105,2.207,5.104,2.937,6.983
		C904.403,391.548,906.483,388.053,908.501,384.646z M918.441,367.724c-0.392-5.96-0.887-7.359-1.57-10.066
		c-2.878,3.007-5.471,6.268-7.774,9.735c2.863,3.937,3.712,6.09,4.709,8.256C915.41,372.92,916.96,370.269,918.441,367.724z
		 M930.167,347.168c-2.492,1.417-4.888,3.006-7.174,4.843c1.941,4.144,1.476,3.327,1.94,4.46
		C926.918,352.992,928.685,349.853,930.167,347.168z M784.209,336.26c1.692,1.432,3.384,2.903,5.079,4.413
		c4.954-6.09,8.181,2.381,5.326,4.879c1.393,1.312,2.783,2.634,4.166,4c4.38-3.585,7.445,3.152,5.156,5.238
		c3.981,3.936,6.251,7.023,6.363,8.602c42.832,41.259,53.63,72.766,54.13,93.491c11.805-13.199,10.325-29.418,4.562-42.859
		c-0.548-1.279-1.602-2.393-1.753-3.755c-0.219-1.972,1.071-3.083,1.722-3.631c4.559-3.838,12.334,22.221,11.335,24.779
		c1.672-2.723,3.368-5.497,5.073-8.294c-1.283-13.857-13.798-46.575,3.253-20.677c1-5.699,2.11-10.008,3.017-13.267
		c-9.624-12.007-1.772-16.888,2.918-8.731c1.651-4.297,3.571-8.484,5.853-12.476c-11.671-9.849-0.528-11.746,3.762-5.903
		c4.925-7.014,6.385-7.873,9.696-11.422c-12.074-13.982,0.77-13.129,5.395-4.658c4.013-3.264,8.929-5.942,11.685-7.246
		c-1.709-7.657-5.953-11.871-8.471-14.536c-1.164-14.322,14.256,5.342,14.712,8.953c0.543-1.156,1.114-2.386,1.703-3.688
		c-1.353-12.681-1.444-15.867-6.371-23.667c1.654-13.086,11.903,6.37,11.796,9.808c8.831-14.651-6.967-35.445,4.032-34.31
		c-0.047-49.034-80.232-113.361-104.508-120.62l-12.438,15.416c5.4,7.904-2.547,8.741-4.806,5.957l-3.605,4.468
		c6.924,7.111-2.29,10.455-5.255,6.514l-2.026,2.51c5.724,7.308-2.872,10.269-5.078,6.295l-79.59,98.647
		c9.453,4.905,28.212,15.532,48.224,31.68c2.185-4.251,6.289-0.819,6.179,0.108C785.429,335.874,784.328,335.419,784.209,336.26z
		 M786.293,400.788c3.255,25.963,4.645,55.05,5.358,80.115c4.126,4.193,8.177,8.311,12.084,12.282
		c-1.313-35.309-4.431-71.947-8.77-105.093L786.293,400.788z M772.456,421.045c0.167,14.507-0.016,28.622-0.151,40.198
		c3.856,3.919,7.731,7.856,11.578,11.766c-1.023-21.368-2.144-42.73-3.14-64.098L772.456,421.045z M756.187,444.863
		c3.118,3.169,6.305,6.407,9.524,9.678c0.196-9.82,0.441-18.13,0.697-24.641L756.187,444.863z M505.168,784.471l0.657-5.842
		c-18.726,6.812-2.67-8.943,1.041-9.256l1.083-9.621c-6.168,5.303-38.081,24.306-34.562,10.013
		c11.493-4.567,23.291-9.426,30.725-16.224c-3.739-3.075-5.774-4.187-8.483-4.413c-10.762,2.133-15.288-3.675-20.244-8.808
		c0.009,0.061-0.95-0.541-0.844-0.556c-17.129,5.037-44.171-2.209-48.871-18.819c-0.976-3.451,2.803-6.428,5.84-4.521
		c5.331,3.346,8.527,14.704,15.089,14.038c2.154-0.219,4.341,0.228,6.427,0.808c7.444,2.068,11.088,2.724,17.166,1.197
		c2.849-0.716,5.878-0.449,8.456,0.959c6.855,3.745,9.676,10.41,17.832,7.793c7.593-5.631,10.821-8.738,14.898-11.946l1.224-10.884
		c-3.369,2.782-6.873,6.28-9.852,7.08c-2.119,0.569-3.865-1.786-2.986-3.796c2.543-5.813,11.271-8.828,13.908-12.797
		c-0.109-27.786,10.52-37.676,70.035-17.315c26.405-23.385,46.803-46.908,69.007-73.63c9.305-7.304,33.891-52.381,47.152-35.888
		c7.354-7.807,29.815-33.837,30.422-19.066c-8.701,9.204-19.862,17.464-26.317,25.501c-20.626,37.733-56.911,69.748-84.728,102.618
		c4.812,3.38,7.205,6.102,9.426,8.33c2.252-2.208,4.48-4.42,6.664-6.626c-2.36-2.89-3.128-3.361-3.699-3.887
		c0.077,0.059,0.154,0.119,0.231,0.178c-6.18-9.81,8.378-4.52,8.794-1.751c1.908-1.98,3.774-3.944,5.585-5.885
		c-10.351-7.668,3.585-7.699,5.372-5.86c28.996-35.865,60.84-73.905,95.246-100.547c-5.198-8.515,4.807-10.253,5.812-4.516
		c24.185-17.979,59.048-31.632,74.951-37.314c-2.228-2.265-4.848-4.928-7.723-7.85c-3.175,0.881-2.372,0.662-3.776,1.215
		c-14.246,7.171-6.295-6.262-1.216-6.29c-1.762-1.79-3.586-3.645-5.494-5.584c-7.272,4.906-7.915-4.083-4.731-4.808
		c-1.693-1.721-3.431-3.487-5.201-5.286c-7.14,4.72-8.501-4.27-4.878-4.957c-1.494-1.518-3.003-3.053-4.532-4.607
		c-4.666,1.293-5.487-3.158-4.52-4.594c-23.359-23.647-52.304-53.214-68.643-69.75c-5.816,2.148-6.549-2.99-4.972-5.049
		c-1.535-1.559-2.929-2.974-4.151-4.214c-6.446,5.049-8.633-3.218-5.042-5.114c-4.315-4.396-10.571-8.781-12.537-10.12
		c-8.868,1.021-51.042,7.967-95.852,50.037c3.86,5.112-3.513,7.363-5.374,5.19c-1.222,1.218-2.398,2.405-3.569,3.587
		c0.237,0.295,0.475,0.587,0.704,0.888c-0.206-0.268-0.413-0.535-0.62-0.803c5.367,5.564-2.978,8.757-5.74,5.675
		c-62.859,67.931-133.295,168.459-222.744,161.286c-2.183-0.175-3.652,2.183-2.524,4.06c5.748,9.565,14.505,24.125,26.494,44.005
		c10.029-4.864,7.848,5.309,3.277,5.406c0.908,1.481,1.841,2.989,2.816,4.537c9.285-4.715,7.036,5.038,3.53,5.537
		c24.633,38.179,64.459,91.007,71.426,100.203c5.416,1.608,24.671,6.433,41.148-0.477
		C503.854,785.055,504.504,784.76,505.168,784.471z M800.989,919.748c-17.406-7.077-1.3-9.729,3.507-6.878l4.088-8.017
		c-19.413-4.595-2.346-9.193,3.409-6.686l3.073-6.028c-60.199-12.242-131.334-38.547-154.542-120.697
		c-28.474-51.211-106.379-89.026-134.093-77.17l-10.764,95.677c6.921,2.04,2.759,8.792-0.868,7.714l-0.719,6.384
		c1.266,0.846,1.614,1.146,1.83,1.305c-0.263-0.203-0.525-0.405-0.788-0.608c6.053,2.775,1.437,8.612-1.945,7.325l-0.601,5.342
		c1.151,0.481,2.044,1.539,2.122,1.709c-0.139-0.18-0.278-0.36-0.418-0.54c3.344,3.976-0.728,6.281-2.569,6.522l-0.531,4.721
		c10.375,1.675,2.496,8.157-0.805,7.159l-0.884,7.857c3.464,2.115,1.473,6.037-0.718,6.378l-3.43,30.487
		c46.721,3.352,80.881,27.771,99.635,45.118c78.092,55.247-51.268,159.189,84.728,211.187l3.546-6.955
		c-9.229-5.026-0.596-9.634,2.967-5.819l2.624-5.146c-10.501-5.962-0.418-10.024,3.156-6.191l4.158-8.154
		c-9.716-3.567,0.262-8.936,3.111-6.101l3.737-7.329c-8.199-3.681,0.022-8.9,3.043-5.969l4.77-9.355
		c-7.012-5.041,0.427-9.878,3.058-5.997l4.34-8.512c-5.338-4.369,0.509-8.535,3.081-6.042l5.537-10.859
		c-6.491-5.132,0.831-8.489,3.002-5.888l3.948-7.744c-4.85-3.339,0.59-7.389,2.881-5.651l5.011-9.828
		c-2.485-3.012,0.61-6.307,2.776-5.445l4.886-9.583c-4.552-3.996,0.492-8.02,3.12-6.119l5.176-10.152
		c-5.932-3.885,0.327-8.757,3.044-5.972l4.321-8.474c-10.613-3.528,0.07-8.663,2.999-5.882l5.27-10.335
		c-6.561-3.785,0.662-8.083,2.885-5.659l5.945-11.659c-16.847-4.371-1.825-8.934,3.277-6.427L800.989,919.748z M533.388,790.59
		c6.895-9.297-1.256-28.54,4.948-41.803c0.289-0.618,0.973-0.907,1.653-0.838c1.971,0.201,3.966-0.263,5.726-1.149
		c1.999-1.007,3.704-2.549,5.002-4.365c0.43-0.602,0.817-1.235,1.159-1.891c0.607-1.165,0.987-3.486,2.788-2.983
		c1.398,0.391,2.703,1.051,4.045,1.604c2.222,0.916,4.635,1.373,6.929,0.414c0.777-0.325,1.478-0.773,2.157-1.266
		c18.747-13.626,37.83,4.276,54.18,17.924c4.514,3.768,10.422-2.849,6.084-6.82c-17.356-15.889-54.08-30.768-63.718-17.302
		c-0.291,0.407-0.741,0.699-1.241,0.696c-6.892-0.044-13.201-6.79-18.848,6.922c-0.356,0.864-1.266,1.38-2.176,1.166
		c-13.923-3.271-16.243,34.991-11.341,49.261C531.122,791.291,532.675,791.552,533.388,790.59z M756.274,951.636
		c-9.964-9.745,2.583-21.003-18.483-30.809c0.976-10.739-3.072-18.806-14.344-24.224c-0.03-26.761-22.204-26.742-36.629-45.271
		c-10.842-8.64-43.151-89.871-33.099-43.866c16.563,46.593,29.162,51.143,59.804,78.519c-1.391,8.641,3.126,18.85,14.112,23.201
		c3.364,3.397,0.981,9.587,3.082,15.804c7.24,10.707,10.768-2.107,14.666,24.85c14.544,14.887-1.84,43.82-8.018,60.928
		C732.613,1048.536,771.355,961.215,756.274,951.636z M769.106,927.6c-13.061,3.184-19.907-17.021-8.748-11.054
		c-0.55-0.713,0.25,0.195,0.404,0.364c1.798,2.683,3.833,3.102,5.718,3.454c1.701,0.09,1.545,0.017,2.022,0.005
		c-0.008,0.029,0.425-0.054,0.395-0.036c-0.005-0.011-0.039-0.006-0.058-0.01c3.909-0.977,1.62-0.731,3.124-1.286
		c2.977-1.872,2.845-7.656,2.74-7.843c-1.522-12.801-15.038-2.885-10.504-12.492C783.562,892.321,788.626,926.621,769.106,927.6z
		 M768.201,903.663C768.052,903.65,767.905,903.647,768.201,903.663L768.201,903.663z M768.839,920.322
		c-0.088-0.019-0.255,0.016-0.336,0.047C768.561,920.357,768.551,920.377,768.839,920.322z M539.139,720.4
		c3.375,5.274,17.886-0.643,4.048-5.247c0.187,0.104,0.281,0.16,0.344,0.198c-2.311-1.486-1.872-5.485,1.974-5.956
		c-0.075,0.002-0.177,0.004-0.38,0.004C563.604,702.752,523.303,699.341,539.139,720.4z M591.063,897.885
		c-15.451-5.308-19.226-13.156-24.136-27.463c-0.246-0.716-0.674-1.396-1.272-1.859c-5.727-4.441-10.288-1.549-13.116-15.14
		c-1.025-4.731-13.44-2.503-13.245-8.325c3.544-8.313-7.167-12.499-8.958-22.556c-1.278-4.745,1.133-8.92,1.833-15.191
		c-4.074-5.444-7.455,2.272-8.554,8.812c-1.33,9.418,2.38,15.064,8.291,23.042c0.656,0.885,0.941,2.002,0.775,3.091
		c-0.636,4.177-1.215,10.311,5.893,12.443c10.269,1.247,7.3,4.891,12.39,13.811c0.369,0.647,0.944,1.2,1.597,1.558
		c9.738,5.336,9.11,2.525,13.07,18.144c0.114,0.45,0.303,0.912,0.554,1.302c6.599,10.237,18.103,11.413,28.972,19.346
		c5.328,2.34,8.732,7.753,12.813,11.907c3.693,3.76,9.586-1.593,6.099-5.545c-6.193-7.018-18.332-14.492-22.152-16.966
		C591.647,898.12,591.366,897.989,591.063,897.885z M531.116,865.863c-0.215,0.173-0.286,0.269-0.261,0.274
		C530.931,866.041,530.859,866.149,531.116,865.863z M523.822,868.325C524.073,868.36,524.303,868.338,523.822,868.325
		L523.822,868.325z M526.352,868.412c0.018-0.001,0.036-0.001,0.055-0.002C526.716,868.382,527.049,868.18,526.352,868.412z
		 M536.548,863.257c-1.338-0.985-4.118-0.091-5.432,2.606c0.024-0.02,0.03-0.03,0.059-0.052c-0.152,0.158-0.072,0.124-0.32,0.326
		c-0.932,1.035-2.197,1.951-4.581,2.299c0.039-0.013,0.044-0.013,0.078-0.024c-0.378,0.014-1.11,0.113-2.732-0.092
		c0.103,0.001,0.133,0.003,0.201,0.005c-0.4-0.09-0.053,0.047-1.326-0.368c0.005-0.018-0.111-0.076-0.268-0.095
		c0.032,0.015,0.003,0.002,0.053,0.022c-0.038-0.011-0.08-0.032-0.113-0.033c0.022,0.001,0.039,0.008,0.06,0.011
		c-7.048-5.29-9.271,6.276,2.839,7.142C529.518,875.504,542.369,870.097,536.548,863.257z M652.355,1064.85
		c0.015,0,0.027-0.001,0.04-0.001c-0.023-0.03-0.041-0.032-0.064-0.035C652.331,1064.815,652.342,1064.834,652.355,1064.85z
		 M687.083,1063.118c-9.121,10.586-14.505,10.671-22.911,5.075c-37.732,28.055-21.318-78.712-24.796-99.23
		c12.123-53.412,4.612,91.125,12.954,95.851c-0.026-0.003-0.052-0.015-0.069,0.039c0.042-0.001,0.059-0.001,0.094-0.003
		c0.007,0.013,0.007,0.009,0.013,0.02c0.012-0.003,0.024-0.006,0.035-0.01c-0.003-0.004-0.006-0.008-0.009-0.012
		c8.74-6.955,14.92-4.22,21.434-0.37c8.469-8.283,13.886-11.201,22.873-7.486c10.843-5.887,21.893-12.424,27.717-21.346
		C742.141,1044.188,693.214,1070.151,687.083,1063.118z M652.417,1064.881c-0.012,0.001-0.026,0.003-0.039,0.005
		C652.499,1065.078,652.483,1064.986,652.417,1064.881z M673.827,1064.486c-0.051-0.013-0.107-0.03-0.139-0.042
		c0.061,0.025,0.093,0.039,0.136,0.057C673.82,1064.495,673.825,1064.491,673.827,1064.486z M676.845,1080.716
		c-13.759,3.449-16.993,26.71,1.159,30.622c4.699,2.458,16.243-7.041,1.415-6.928c-7.802-1.011-11.553-14.207-0.178-17.422
		C694.655,1093.229,690.654,1078.602,676.845,1080.716z M636.379,884.241c-4.661-7.741-10.002-12.515-14.408-16.21
		c-7.17-15.78,16.984,4.396,17.456,7.659c3.02-7.241,8.153-14.987,11.933-19.117c-16.332-23.388,0.619-15.252,5.349-5.315
		c4.341-2.921,6.669-2.849,8.888-1.454c12.193,1.188,12.306,19.281,12.054,26.488c22.369,35.942,12.862,47.707-1.196,11.757
		c-0.885,5.568-1.651,8.663-2.284,11.23c26.238,44.746,10,41.193-2.811,9.148c-2.652,7.387-3.787,9.561-5.229,12.733
		c7.056,14.07-0.757,14.656-4.425,7.533c-1.297,1.75-2.737,3.363-4.413,4.694C630.502,950.473,631.078,899.453,636.379,884.241z
		 M660.745,915.856c7.159-18.015,11.273-37.188,7.144-53.981c-0.547-1.392-1.4-2.352-2.285-3.12
		c-2.364-2.049-5.918-1.775-8.03,0.534c-2.685,2.937-4.49,6.118-6.209,8.371C635.833,881.914,636.745,961.526,660.745,915.856z
		 M694.753,958.693c10.461-10.035,9.77-21.974-6.687-3.927c-3.645,1.185-15.566-6.912-18.548,0.934
		c-1.338,6.426,8.514,9.827,7.324,18.193c-0.533,4.532-17.047,29.842,0.02,20.103c8.343-8.994,15.201-5.449,25.521-6.974
		c1.674-0.247,2.983-1.644,3.027-3.336c0.421-15.957-17.263-31.875-7.95-2.916c-4.531-0.997-11.346-2.128-17.276,3.322
		c3.518-6.314,6.546-16.83-1.519-23.838c2.796,0.3,6.441,1.651,10.863,1.014C691.497,960.986,693.316,960.071,694.753,958.693z
		 M576.162,829.879c-3.891,26.788,11.758,2.819,21.69-3.055c1.682-0.839,7.399,0.889,11.005-0.383
		c2.543-0.897,2.807-4.306,0.605-5.863c-7.106-5.024-21.993,2.273-26.876,11.455c1.241-6.191,2.372-16.158-7.606-20.04
		c4.504,1.093,18.035-7.307,19.468-13.821c0.655-2.979-3.296-4.681-5.174-2.278c-6.474,8.285-12.211,9.492-22.379,10.551
		c-3.33,0.347-4.733,4.501-2.236,6.731C569.269,817.296,580.663,818.831,576.162,829.879z M223.258,649.418
		c4.744-0.337,12.81,2.151,17.958-0.501c3.583-1.846,2.483-7.167-1.537-7.458c-1.543-0.111-3.564-0.086-6.287-0.203
		c-25.254,2.964-50.001,4.059-75.087,9.001c-3.131,0.617-3.413,5.114-0.35,6.007C171.883,660.325,217.111,650.418,223.258,649.418z
		 M223.739,665.586c-1.683-1.115-43.212,4.867-27.53,13.454C197.542,679.77,237.889,674.022,223.739,665.586z M228.808,692.081
		c3.122-3.326,42.916-22.204,19.44-20.257c-21.803,11.292-42.954,23.074-62.206,38.989c-3.587,2.965-0.074,8.648,4.154,6.704
		C202.14,712.027,221.436,693.976,228.808,692.081z M257.278,699.728c1.35-1.735,0.766-5.051-2.707-5.614
		C188.792,739.164,213.965,746.678,257.278,699.728z M161.296,607.68c19.465,4.713,41.275,7.95,61.768,18.081
		C261.42,626.701,149.219,589.643,161.296,607.68z M248.397,614.822c9.423-14.212-119.521-85.441-4.831-1.266
		C244.724,615.066,246.605,615.87,248.397,614.822z M249.225,583.493c-2.391-8.167-8.051-30.172,0.738-19.101
		c0.82,1.033,10.321,19.943,2.755,23.046C249.615,586.48,249.618,585.08,249.225,583.493z M263.143,717.566
		c-8.458,17.925,3.458,35.879,6.123-0.044C267.944,715.811,265.599,715.414,263.143,717.566z M967.362,524.824
		c-3.91,2.707-12.119,4.676-15.197,9.581c-2.142,3.413,1.516,7.432,5.122,5.634c1.384-0.69,3.111-1.742,5.513-3.029
		c20.22-15.418,40.955-28.97,60.022-46.004c2.379-2.126,0.331-6.139-2.76-5.347C1006.011,489.262,972.142,520.831,967.362,524.824z
		 M958.71,511.157c2.017,0.102,34.702-26.205,16.833-25.604C974.024,485.604,942.237,511.108,958.71,511.157z M940.849,490.942
		c-0.991,4.453-25.614,40.973-6.406,27.335c13.006-20.825,25.203-41.741,33.659-65.244c1.576-4.379-4.343-7.479-6.991-3.652
		C953.632,460.192,946.226,485.555,940.849,490.942z M912.455,498.869c-0.277,2.181,1.915,4.737,5.189,3.451
		C951.29,430.04,925.802,436.402,912.455,498.869z M1041.944,529.166c-19.15,5.863-39.566,14.19-62.361,15.915
		C946.101,563.816,1061.527,538.532,1041.944,529.166z M963.36,567.402c-0.867,17.03,146.377,12.618,4.802-1.372
		C966.395,565.32,964.367,565.587,963.36,567.402z M978.61,594.78c6.219,5.809,22.301,21.859,9.098,16.812
		c-1.232-0.471-19.042-11.901-14.114-18.426C976.753,592.409,977.463,593.615,978.61,594.78z M898.32,486.508
		c-1.856-19.733-21.257-29.11-5.246,3.157C895.083,490.465,897.302,489.612,898.32,486.508z M987.705,610.938
		c-0.001-0.001-0.003-0.003-0.005-0.005C987.532,610.794,987.171,610.563,987.705,610.938z M881.922,476.01
		C881.957,476.271,881.956,476.265,881.922,476.01L881.922,476.01z M881.922,476.01c-0.008-0.061-0.013-0.097-0.025-0.187
		C881.922,476.01,881.915,475.957,881.922,476.01z M704.695,212.379c10.479-16.765,14.525-39.253,23.138-59.273
		c0.101-4.332,11.674-18.95,6.853-23.052c-0.857-0.729-2.535-2.148-4.281-1.074c-0.778,0.479-1.021,1.994-1.736,3.504
		C719.357,152.137,688.651,226.054,704.695,212.379z M687.31,187.637c4.434,1.638,15.168-27.151,8.764-34.543
		C692.13,149.149,681.927,182.595,687.31,187.637z M663.934,162.867c1.811,4.634,1.626,68.032,10.714,41.976
		c0.956-25.894-3.782-48.805-6.629-75.716c-0.234-2.211-1.702-4.286-3.876-4.754C655.371,122.481,663.794,156.057,663.934,162.867z
		 M639.016,179.305c1.272,5.546,2.307,12.721,5.024,18.428c1.951,4.098,8.262,2.244,7.614-2.248
		c-0.911-6.315-3.701-13.431-5.775-21.057c-1.664-6.119-0.838-14.72-2.905-20.244c-1.889-5.048-9.126-4.033-9.435,1.349
		C633.125,162.74,637.331,171.961,639.016,179.305z M725.08,205.685c-6.669,24.903,59.108-46.065,48.067-50.085
		c-9.144,1.202-12.167,14.827-18.952,22.621C746.228,187.592,734.479,194.402,725.08,205.685z M517.029,1059.879
		c-9.74,17.205-12.804,39.848-20.538,60.224c0.088,4.333-10.839,19.44-5.844,23.329c0.888,0.691,2.626,2.036,4.323,0.887
		c0.756-0.512,0.933-2.037,1.582-3.576C505,1120.702,532.463,1045.519,517.029,1059.879z M535.473,1083.841
		c-4.501-1.444-13.973,27.785-7.253,34.891C532.331,1122.502,541.07,1088.644,535.473,1083.841z M559.905,1107.572
		c-2.011-4.551-4.583-67.897-12.529-41.47c0.172,25.911,5.901,48.595,9.916,75.357c0.33,2.199,1.887,4.208,4.079,4.581
		C570.216,1147.547,560.34,1114.369,559.905,1107.572z M584.084,1090.065c-1.512-5.485-2.858-12.609-5.82-18.192
		c-2.127-4.009-8.352-1.883-7.509,2.577c1.185,6.269,4.281,13.258,6.685,20.786c1.929,6.04,1.477,14.669,3.783,20.098
		c2.107,4.961,9.292,3.632,9.367-1.758C590.69,1106.358,586.087,1097.329,584.084,1090.065z M496.954,1067.453
		c5.58-25.169-57.048,48.592-45.844,52.128c9.083-1.598,11.511-15.342,17.95-23.424
		C476.613,1086.449,488.055,1079.135,496.954,1067.453z M466.443,202.505c1.594,1.637,3.067,3.383,4.469,5.187
		c10.499-15.196,10.909,0.777,4.258,6.174c1.594,2.674,2.976,5.467,4.158,8.35c9.656-8.068,7.369,5.13,2.55,7.369
		c1.155,4.132,1.906,8.371,2.235,12.644c5.18-6.905,5.436-8.859,9.987-6.129c0.72,8.087-8.968,13.541-10.207,18.62
		c-10.499,65.042-62.481-46.888-28.888-56.797c3.551-1.858,4.956,0.248,6.363,0.411c0.486-1.145,0.993-2.281,1.529-3.401
		C473.222,176.438,472.062,196.322,466.443,202.505z M464.006,209.672c-5.335,22.525-9.904,2.015-4.885-5.274
		c-0.237-0.177-0.479-0.33-0.727-0.461c-2.283,2.975-2.984,2.403-3.622,3.382c-10.009,11.305,11.561,77.942,20.676,54.447
		c-0.15-8.931,3.549-16.501,1.096-23.874c-11.196,24.402-9.195-3.312-2.21-9.119c-1.241-3.885-2.825-7.163-3.071-7.673
		c-9.831,23.222-11.279,1.235-4.05-7.041C464.845,210.545,464.535,210.397,464.006,209.672z M424.439,253.756
		c12.201-0.993,22.534-24.867-0.399-5.792c0.08-0.037-0.058,0.009-0.2,0.082c0.117-0.045,0.014-0.005,0.192-0.078
		c-0.096,0.038-0.197,0.072-0.282,0.125c0.028-0.018,0.059-0.032,0.09-0.047C421.759,248.038,418.634,253.407,424.439,253.756z
		 M442.339,256.639c-0.332-5.85-24.425,11.307-9.316,10.443C434.641,266.228,444.258,262.963,442.339,256.639z M440.152,272.344
		c-11.557,9.701,16.138,6.02,7.406-5.263C444.099,267.126,444.463,268.612,440.152,272.344z M601.38,490.999
		c-5.453,2.656-24.662,17.372-27.055,25.839c-0.827,2.925,2.533,5.099,4.948,3.254c5.852-4.47,8.683-12.367,17.046-17.566
		C599.95,499.802,612.014,492.018,601.38,490.999z M592.765,518.403c-4.971,10.419,15.917-1.069,18.279-8.585
		c0.288-0.916-0.184-1.944-1.04-2.379C604.529,504.66,598.262,513.605,592.765,518.403z M615.323,517.21
		c-1.78,0.381-13.525,6.253-6.18,10.986c1.767,0.113,10.696-3.323,9.408-9.021C618.063,518.557,617.899,517.317,615.323,517.21z
		 M449.887,634.192c16.656-6.053,56.609-39.908,33.032-32.033c-7.676,11.204-26.714,17.666-35.992,27.361
		C444.832,631.709,447.039,635.227,449.887,634.192z M466.458,639.888c3.829-1.075,33.553-16.555,19.814-21.239
		c-6.964,4.221-8.374,8.44-19.04,14.239C464.522,633.212,459.299,639.212,466.458,639.888z M667.749,569.372
		c-16.173,4.097-34.729,41.536-2.984,9.388C666.784,577.592,675.055,572.064,667.749,569.372z M619.631,900.658
		c0.165-1.367-22.094-25.747-23.647-12.741c4.332,5.329,11.39,6.226,17.281,16.287C614.113,908.463,624.57,910.5,619.631,900.658z
		 M617.621,876.739c-3.738-5.264-22.366-7.108-6.461,3.603c-0.003,0.004,0.088,0.079,0.221,0.167
		c-0.006-0.004-0.012-0.013-0.042-0.035c0.036,0.026,0.07,0.057,0.107,0.079c-0.024-0.014-0.042-0.029-0.065-0.044
		c1.087,0.911,2.956,2.503,5.033,4.999C620.851,894.522,630.5,885.212,617.621,876.739z M633.044,855.095
		c0.024,0.031,0.041,0.054,0.065,0.085C633.097,855.166,633.098,855.161,633.044,855.095z M633.975,846.199
		c-2.618-4.504-21.417-9.497-8.031,1.909c2.146,1.612,4.139,3.441,7.099,6.988c-0.03-0.04-0.061-0.081-0.08-0.109
		c0.111,0.154,0.324,0.408,0.145,0.194C637.504,863.877,647.38,854.462,633.975,846.199z M611.397,761.099
		c-2.746-3.237-30.724-22.664-33.52-14.503c-0.289,0.844-1.216,2.56-0.004,3.467c0.575,0.43,1.555,0.076,2.494,0.365
		C591.139,753.745,614.875,777.383,611.397,761.099z M594.484,773.548c2.984,5.945,17.634,6.749,5.224-3.832
		C593.683,762.291,576.156,762.716,594.484,773.548z"/>
</g>
</svg>
